<?xml version="1.0" standalone="no"?>
<!DOCTYPE svg PUBLIC "-//W3C//DTD SVG 20010904//EN"
 "http://www.w3.org/TR/2001/REC-SVG-20010904/DTD/svg10.dtd">
<svg version="1.0" xmlns="http://www.w3.org/2000/svg"
 width="250.000000pt" height="267.000000pt" viewBox="0 0 250.000000 267.000000"
 preserveAspectRatio="xMidYMid meet">
<g transform="translate(0.000000,267.000000) scale(0.100000,-0.100000)"
fill="#ffffff" stroke="none">
<path d="M778 2321 c-1 -5 -61 -69 -131 -142 l-128 -133 135 -135 136 -136 32
32 31 32 -68 73 c-38 40 -72 75 -77 76 -31 13 17 17 192 14 l200 -3 0 51 0 50
-190 0 c-147 0 -190 3 -190 13 0 7 31 44 70 82 l70 69 -32 33 c-33 34 -44 39
-50 24z"/>
<path d="M1657 2302 c-15 -15 -27 -32 -27 -38 0 -5 34 -43 75 -84 l76 -75
-203 -5 -203 -5 0 -45 0 -45 198 4 c108 2 197 0 197 -5 0 -5 -33 -41 -72 -81
l-73 -73 33 -32 32 -33 137 137 137 137 -134 136 c-74 74 -137 135 -140 135
-4 0 -18 -13 -33 -28z"/>
<path d="M880 1674 c-91 -39 -118 -77 -195 -266 l-54 -132 -58 -26 c-72 -33
-128 -95 -148 -164 -11 -36 -15 -100 -15 -231 0 -169 1 -183 20 -203 12 -12
32 -22 45 -22 24 0 25 -3 25 -63 0 -86 16 -100 116 -105 132 -7 154 8 154 104
l0 64 470 0 470 0 0 -67 c0 -38 4 -73 8 -79 15 -24 54 -34 126 -34 121 0 138
15 140 127 1 43 4 53 19 53 9 0 26 9 37 20 19 19 20 33 20 219 0 215 -7 254
-57 319 -16 21 -50 45 -86 62 l-59 27 -64 149 c-55 129 -70 155 -113 195 -33
31 -64 50 -95 58 -29 7 -156 11 -358 11 -255 -1 -319 -4 -348 -16z m695 -96
c49 -27 80 -68 115 -153 18 -44 41 -97 51 -117 l19 -38 -515 0 c-487 0 -516 1
-511 18 3 9 25 62 48 117 84 198 80 196 473 192 249 -2 294 -4 320 -19z m-787
-524 c55 -36 77 -116 47 -174 -26 -49 -61 -70 -123 -70 -50 0 -58 3 -93 39
-34 34 -39 44 -39 86 0 61 25 103 75 126 44 21 93 18 133 -7z m1063 3 c79 -52
87 -141 19 -209 -35 -35 -42 -38 -95 -38 -53 0 -60 3 -96 39 -34 34 -39 44
-39 86 0 61 25 103 75 126 54 25 95 24 136 -4z"/>
</g>
</svg>
