<?xml version="1.0" encoding="utf-8" ?>
<svg xmlns="http://www.w3.org/2000/svg" xmlns:xlink="http://www.w3.org/1999/xlink" width="185" height="118">
	<path fill="#222222" d="M0 0L184.562 0C184.854 0.44507 184.948 0.842092 184.972 1.3695C185.381 10.384 185.005 19.5871 185.006 28.6175L185.007 82.9044L185.002 107.648C185.001 110.192 185.422 114.894 184.914 117.21C184.852 117.491 184.719 117.761 184.562 118L0 118L0 0Z"/>
	<path fill="#FEFEFE" d="M114.934 59.1095Q115.714 59.0594 116.496 59.0408C121.779 58.9416 134.992 58.3873 139.535 59.6519C140.453 59.9074 141.189 60.431 141.866 61.0888C144.631 63.7746 144.272 67.3761 144.304 70.9291L144.298 86.2661C144.289 90.2264 144.724 94.9628 143.721 98.7953C143.561 99.4093 143.068 99.9297 142.632 100.369C140.168 102.849 137.143 102.557 133.937 102.577L119.196 102.59C116.074 102.59 112.719 102.824 109.646 102.278C108.531 102.081 107.552 101.767 106.698 100.998C105.262 99.7032 104.557 98.2439 104.454 96.3429C104.148 90.677 104.377 84.8893 104.386 79.2117C104.393 74.8447 104.085 70.2145 104.589 65.8896C104.752 64.4913 104.923 62.9194 105.896 61.847C108.252 59.2529 111.711 59.2873 114.934 59.1095Z"/>
	<path fill="#222222" d="M121.137 81.3778C123.69 81.2161 126.265 81.0959 128.803 81.4833C128.887 81.6063 128.951 81.7311 129.017 81.8633C130.035 83.8897 129.577 88.7706 129.386 91.0597C129.304 92.0473 129.326 92.6227 128.544 93.2846C125.986 93.3811 123.448 93.4202 120.888 93.3666C121.523 91.7703 121.124 83.5989 121.137 81.3778Z"/>
	<path fill="#222222" d="M115.236 70.502L134.121 70.5031C134.248 70.6968 134.352 70.9012 134.408 71.1272C134.688 72.2579 134.712 74.3514 134.111 75.3784C132.68 75.9656 117.827 75.5307 115.265 75.5298L115.236 70.502Z"/>
	<path fill="#FEFEFE" d="M55.6743 21.3407C67.8313 20.9486 80.1173 21.3183 92.2865 21.3279C100.864 21.3346 109.885 20.8524 118.395 21.3584C119.715 21.4368 120.849 21.5002 121.999 22.2059C123.711 23.2574 124.653 24.6386 125.106 26.5926C125.677 29.0536 125.872 50.4206 125.052 51.7464L118 51.7058C118.692 49.9079 118.321 31.6327 117.93 28.9414C114.67 28.4548 111.1 28.7009 107.801 28.7035L90.5826 28.7156L68.2208 28.6961C63.9615 28.6939 59.4839 28.4298 55.2556 28.9423C54.4483 32.5341 54.7636 36.5276 54.7737 40.1875C54.827 49.6389 54.424 59.1799 54.7907 68.6172C54.8329 69.704 54.7533 71.3031 55.5753 72.0653C58.286 72.8671 82.4245 72.6568 86.8977 72.4671C91.3415 72.2787 93.4253 70.0934 96.2866 66.9852L96.2059 79.7614C87.8107 80.2898 79.2584 80.0048 70.8446 79.9923C64.9943 79.9837 58.4952 80.4782 52.7303 79.5311C51.7327 79.3672 50.9132 79.0163 50.1291 78.3766C48.7376 77.2415 48.021 75.675 47.8474 73.9105C47.565 71.0405 47.7071 68.0439 47.7039 65.1589L47.6997 50.2852L47.7 36.4351C47.7028 33.3686 47.5732 30.2013 47.9559 27.1563C48.0991 26.0171 48.3964 25.1697 49.1373 24.2799C50.7588 22.3324 53.2394 21.552 55.6743 21.3407Z"/>
	<path fill="#FEFEFE" d="M75.1205 38.3584C75.1972 38.3862 75.2726 38.4176 75.344 38.4574C75.8833 38.7582 78.2271 42.6617 78.8685 43.4714C81.4159 46.6867 86.8602 50.6405 88.0003 54.4254C92.5278 46.4375 100.624 48.2007 108.043 45.2784C107.272 47.7424 106.689 49.8383 105.108 51.9403C103.666 52.5791 102.219 52.8838 100.687 53.2272C96.1879 54.2361 93.9082 55.6346 90.6831 58.9435Q88.5491 61.1949 86.839 63.7831C85.0446 57.501 79.5513 52.5952 74.6437 48.5763C74.4276 49.1923 74.2126 49.8573 73.8397 50.3983C71.5195 53.7643 63.4914 54.4717 59.7315 55.1686C60.6509 53.0422 61.4067 50.8574 62.1783 48.6744C64.5324 48.4244 67.0813 48.1206 69.249 47.1168C72.819 45.4635 73.8662 41.7487 75.1205 38.3584Z"/>
	<path fill="#FEFEFE" d="M94.4968 85.6248L96.2207 85.6086L96.1578 96.6356C85.5632 96.9886 74.8687 96.7289 64.2646 96.7059C63.7722 96.6921 63.2409 96.7114 62.7913 96.4882C62.4815 96.3344 62.4881 96.165 62.3875 95.8582C62.5593 95.203 62.9965 94.7152 63.4564 94.2391C65.53 92.0926 68.13 90.8851 70.771 89.6169C73.1191 88.4893 75.5192 87.1754 78.0127 86.4096C82.4343 85.0518 89.7204 85.7205 94.4968 85.6248Z"/>
</svg>
