<?xml version="1.0" encoding="utf-8" ?>
<svg xmlns="http://www.w3.org/2000/svg" xmlns:xlink="http://www.w3.org/1999/xlink" width="166" height="121">
	<path fill="#222222" d="M0 0L165.562 0C165.872 0.472383 165.952 0.886302 165.975 1.44046C166.352 10.7744 166.005 20.2635 166.006 29.6106L166.007 85.4372L166.002 110.441C166.002 113.056 166.429 117.828 165.914 120.213C165.853 120.494 165.719 120.761 165.562 121L0 121L0 0Z"/>
	<path fill="#FEFEFE" d="M93.8215 16.3473C93.8382 16.3459 93.8548 16.3438 93.8716 16.3432C94.5122 16.3209 95.4492 17.0725 95.8884 17.5055C96.2715 17.883 96.4018 18.4533 96.3942 18.9777C96.3755 20.267 95.4331 21.517 94.5367 22.3634C91.0149 25.6888 85.6927 24.9571 81.2579 24.8559L81.2404 28.7939C86.7129 28.7967 98.9842 28.1249 103.662 29.08C106.665 32.152 107.542 36.505 110.254 39.1993C112.056 40.9908 113.844 40.8602 116.202 40.8441L115.983 48.4951C117.652 48.5435 119.33 48.5011 121 48.4899C122.173 46.0868 120.395 41.7792 122.3 39.7407C123.163 38.8171 125.011 38.586 126.197 38.5177C129.739 38.3138 134.877 39.0746 137.591 41.5416C138.147 42.0469 138.973 42.8459 139.005 43.6368C139.694 44.7946 139.512 46.7875 139.532 48.1125C139.624 54.2163 139.539 60.3309 139.539 66.4358C139.539 71.6746 140.167 77.8284 138.854 82.9246C138.662 83.6694 138.175 84.2388 137.646 84.7779C134.569 87.9109 129.425 88.8939 125.175 88.9289C124.088 88.9379 122.89 88.747 122.09 87.9442C120.721 86.5695 120.988 83.9637 120.995 82.184C119.734 82.37 118.52 82.3596 117.251 82.3337C116.476 85.2771 115.839 89.2729 113.45 91.3785C112.095 92.573 110.126 93.5544 108.358 93.9194C102.874 95.052 96.41 94.4338 90.8019 94.4145C85.3603 94.3959 79.7856 94.6025 74.3587 94.2324C70.0478 93.9384 68.305 92.5601 65.5296 89.3784C63.4594 86.5931 61.339 83.753 59.6486 80.7169C56.6039 80.7671 53.4145 80.9938 50.3832 80.7685C49.3879 80.6946 48.0444 80.5802 47.3562 79.7622C46.6141 78.8802 46.2952 77.712 46.1265 76.5945C45.5109 72.5171 45.9447 62.8572 46.3041 58.5197C43.7029 58.6173 41.0897 58.5347 38.4874 58.5024C38.6762 63.4376 38.8985 68.639 38.5849 73.5665C38.4985 74.9236 38.1645 76.8118 37.0539 77.7352C36.5788 78.1302 36.0796 78.2693 35.4687 78.1929C33.9726 78.0057 32.7272 76.2115 31.8742 75.1003C30.9358 70.8411 31.4838 64.9123 31.4837 60.4311Q31.4412 47.5872 31.5626 34.7434C32.2405 33.5122 33.1316 32.4177 34.0845 31.3888C34.5559 30.8798 35.3743 30.1375 36.1142 30.1368C36.6431 30.1362 37.0118 30.341 37.3732 30.7229C39.5532 33.0265 38.5432 47.4747 38.4862 51.2561L46.3122 51.232C46.0465 47.8762 45.4448 43.2254 47.6485 40.3745C49.6252 37.8174 53.4826 37.1823 56.4974 36.7892C56.8196 35.2422 57.286 33.5293 57.9074 32.0779C58.2782 31.2119 58.81 30.2656 59.6231 29.7439C62.1072 28.1498 67.8444 28.7792 70.7524 28.8807C71.8206 28.918 73.0626 29.097 74.0734 28.7C74.5792 27.6075 74.3483 26.0546 74.4776 24.7931C72.691 24.8295 70.6914 25.0006 68.9336 24.6392C68.0506 24.4576 67.138 24.0537 66.6382 23.2663C65.5924 21.6188 66.2892 19.5197 66.6792 17.7765C73.1125 17.3939 79.5764 17.9094 85.9965 17.4941C88.6465 17.3226 91.2027 16.7368 93.8215 16.3473Z"/>
	<path fill="#222222" d="M63.0545 36.3671C75.6774 35.9741 88.3964 36.1014 101.026 36.2443C102.004 39.8155 104.299 44.7568 107.204 47.1774C107.815 47.6866 108.921 47.6778 109.4 48.119C109.788 48.4758 109.796 54.0692 109.846 55.1448C113.869 55.4099 123.046 56.2329 126.573 54.6984C127.124 54.4586 127.518 54.1662 127.734 53.5854C128.259 52.1745 128.523 46.8643 127.933 45.5027C129.276 45.5533 130.606 45.5989 131.949 45.5395Q132.014 45.6796 132.065 45.8255C132.735 47.7685 132.429 74.6992 132.21 78.072C132.17 78.6922 132.06 79.2514 131.781 79.8102C131.77 79.8465 131.758 79.9004 131.739 79.9358C131.04 81.1947 128.391 81.8698 127.081 82.2697C127.109 82.2272 127.138 82.1848 127.164 82.1409C127.991 80.7472 127.869 77.5879 127.437 76.0585C127.148 75.0314 126.75 74.4948 125.818 73.9796L125.715 73.7688C125.122 73.2187 124.07 73.079 123.295 72.8855C122.893 73.6863 121.065 74.6761 120.264 75.24C117.786 75.482 115.281 75.4741 112.794 75.5214C109.77 78.166 109.495 83.4662 108.822 87.1992Q98.4657 87.3318 88.1085 87.2858C83.1063 87.2892 78.0492 87.4539 73.055 87.1582C71.486 85.5495 70.0014 83.951 68.7435 82.0785C66.8839 79.3102 65.426 76.3076 63.2505 73.7537C59.6741 73.7078 56.0773 73.9026 52.5019 74.0154C52.6469 64.266 52.5641 54.4897 52.5015 44.739C55.2275 44.2459 58.2224 43.7308 60.4063 41.8951C62.08 40.4884 62.8739 38.5042 63.0545 36.3671Z"/>
</svg>
