<?xml version="1.0" standalone="no"?>
<!DOCTYPE svg PUBLIC "-//W3C//DTD SVG 20010904//EN"
 "http://www.w3.org/TR/2001/REC-SVG-20010904/DTD/svg10.dtd">
<svg version="1.0" xmlns="http://www.w3.org/2000/svg"
 width="184.000000pt" height="188.000000pt" viewBox="0 0 184.000000 188.000000"
 preserveAspectRatio="xMidYMid meet">
<g transform="translate(0.000000,188.000000) scale(0.100000,-0.100000)"
fill="#ffffff" stroke="none">
<path d="M360 1634 c-19 -8 -45 -25 -58 -37 -53 -49 -52 -36 -52 -623 0 -532
1 -547 21 -583 11 -20 36 -48 56 -61 l37 -25 530 -3 c292 -2 546 0 564 3 40 7
101 59 118 102 11 26 14 141 14 568 0 506 -1 538 -19 573 -23 46 -46 67 -94
87 -54 22 -1064 22 -1117 -1z m1126 -97 l24 -28 0 -535 0 -536 -29 -29 -29
-29 -526 0 c-371 0 -532 3 -550 11 -56 26 -57 31 -54 598 3 503 4 520 23 541
11 12 29 26 40 31 11 4 258 7 548 6 l529 -2 24 -28z"/>
<path d="M417 1463 c-4 -3 -7 -226 -7 -494 0 -435 2 -488 16 -493 9 -3 233 -6
499 -6 395 0 485 2 494 14 8 9 10 148 9 497 l-3 484 -501 3 c-275 1 -504 -1
-507 -5z m941 -491 l2 -422 -437 2 -438 3 -3 423 -2 422 437 -2 438 -3 3 -423z"/>
<path d="M620 1275 c-11 -13 -9 -23 6 -57 26 -59 24 -147 -5 -223 -32 -83 -33
-182 -2 -252 26 -59 53 -88 76 -79 28 10 28 36 1 95 -31 71 -33 123 -5 193 25
66 36 201 20 251 -15 43 -47 87 -66 87 -7 0 -18 -7 -25 -15z"/>
<path d="M900 1275 c-10 -12 -8 -24 9 -64 27 -65 27 -104 -5 -198 -35 -106
-40 -167 -21 -234 20 -66 66 -125 90 -116 29 11 30 35 3 89 -34 68 -34 135 -1
224 32 86 34 188 4 254 -27 61 -54 76 -79 45z"/>
<path d="M1170 1275 c-11 -13 -10 -24 4 -66 22 -71 20 -123 -10 -210 -35 -104
-35 -191 1 -262 34 -65 49 -81 69 -74 29 11 29 36 2 96 -33 74 -33 115 1 210
37 104 38 196 3 266 -27 53 -49 66 -70 40z"/>
</g>
</svg>
