<?xml version="1.0" standalone="no"?>
<!DOCTYPE svg PUBLIC "-//W3C//DTD SVG 20010904//EN"
 "http://www.w3.org/TR/2001/REC-SVG-20010904/DTD/svg10.dtd">
<svg version="1.0" xmlns="http://www.w3.org/2000/svg"
 width="1684.000000pt" height="276.000000pt" viewBox="0 0 1684.000000 276.000000"
 preserveAspectRatio="xMidYMid meet">

<g transform="translate(0.000000,276.000000) scale(0.100000,-0.100000)"
fill="#000000" stroke="none">
<path fill="currentColor" stroke="currentColor" d="M8810 2532 c-30 -2 -60 -8 -68 -14 -9 -8 -12 -39 -10 -119 3 -125 4
-125 -96 -153 -74 -21 -96 -31 -161 -72 -84 -54 -83 -54 -184 31 -50 41 -98
75 -108 74 -16 0 -126 -117 -169 -177 -19 -28 -10 -42 69 -107 82 -66 85 -81
42 -170 -19 -41 -35 -78 -35 -84 0 -6 -4 -19 -10 -29 -16 -28 -40 -111 -40
-136 0 -39 -26 -51 -130 -57 -53 -3 -102 -9 -108 -13 -18 -11 -17 -290 1 -304
7 -6 62 -13 121 -14 l109 -3 22 -72 c24 -76 64 -163 102 -225 40 -66 33 -94
-47 -173 -38 -38 -70 -75 -70 -83 0 -21 171 -192 192 -192 11 0 56 36 100 80
62 61 88 80 109 80 15 0 30 -4 34 -9 8 -15 103 -58 165 -76 30 -9 72 -21 93
-27 21 -7 42 -19 48 -29 5 -10 9 -60 9 -111 0 -51 4 -99 9 -106 6 -10 40 -13
141 -13 73 1 137 4 141 7 5 3 9 56 9 118 0 97 3 115 18 129 10 10 25 17 33 17
39 0 146 43 219 88 30 19 65 34 77 34 21 1 118 -73 164 -124 9 -10 25 -18 35
-18 19 0 160 144 178 181 13 27 -5 55 -75 114 -33 28 -62 60 -65 73 -4 15 7
48 35 102 22 44 41 88 41 98 0 10 3 22 7 26 11 10 33 79 33 102 0 11 9 30 20
42 18 19 32 22 94 22 40 0 87 5 105 11 l31 11 0 142 c0 97 -4 146 -12 154 -8
8 -47 12 -107 12 -53 0 -102 4 -109 9 -18 11 -42 59 -42 82 0 11 -4 27 -10 37
-5 9 -21 44 -36 77 -15 33 -30 62 -34 65 -3 3 -13 21 -22 40 -35 77 -36 74 48
160 74 76 76 80 62 102 -26 40 -171 178 -186 178 -8 0 -51 -36 -96 -80 -45
-44 -89 -80 -98 -80 -9 0 -50 18 -93 39 -66 34 -106 47 -201 66 -11 3 -30 13
-42 23 -20 18 -22 29 -22 126 0 80 -3 108 -13 112 -17 6 -145 10 -217 6z m172
-713 c54 -12 151 -53 178 -75 89 -74 160 -169 160 -213 0 -9 5 -22 11 -28 15
-15 16 -220 1 -235 -7 -7 -12 -20 -12 -30 0 -57 -134 -211 -215 -248 -125 -57
-304 -53 -404 8 -73 45 -94 62 -125 103 -42 54 -86 136 -86 160 0 10 -5 21
-11 24 -11 8 -11 180 1 205 4 8 20 44 36 80 53 123 169 213 314 244 82 18 88
18 152 5z"/>
<path d="M6267 2008 c-66 -18 -102 -67 -163 -223 -15 -38 -31 -74 -36 -79 -4
-6 -8 -20 -8 -32 0 -13 -4 -25 -9 -29 -5 -3 -17 -29 -26 -58 -10 -28 -21 -56
-26 -61 -5 -6 -9 -17 -9 -25 0 -9 -9 -34 -19 -56 -47 -97 -71 -155 -71 -167 0
-8 -4 -18 -8 -23 -5 -6 -21 -44 -36 -85 -16 -41 -36 -93 -47 -115 -10 -22 -21
-52 -24 -67 -4 -16 -11 -28 -16 -28 -5 0 -9 -9 -9 -19 0 -11 -9 -36 -19 -58
-27 -54 -45 -119 -37 -132 5 -7 44 -11 105 -11 81 0 100 3 112 18 24 30 39 61
39 82 0 11 5 20 10 20 6 0 10 8 10 18 0 22 38 104 54 115 6 4 85 7 176 6 91 0
173 3 183 6 18 8 24 50 7 60 -5 3 -10 14 -10 24 0 9 -12 40 -26 69 l-26 52
-104 0 c-121 0 -127 5 -95 71 12 23 21 49 21 57 0 8 7 26 15 40 18 34 85 206
85 219 0 6 6 23 14 39 8 16 22 46 31 67 10 21 22 36 27 35 5 -2 18 -28 29 -58
11 -30 28 -74 39 -97 11 -24 20 -49 20 -57 0 -8 4 -17 9 -21 5 -3 12 -18 16
-35 3 -16 15 -47 26 -69 10 -22 19 -45 19 -51 0 -5 4 -18 9 -28 6 -9 22 -46
37 -82 15 -36 33 -79 40 -97 8 -17 14 -35 14 -40 1 -4 9 -26 20 -48 11 -22 19
-47 20 -55 0 -9 4 -20 8 -25 5 -6 19 -37 32 -70 13 -33 34 -84 46 -112 l24
-53 99 0 c77 0 101 3 111 15 10 12 10 19 2 27 -7 7 -12 20 -12 30 0 9 -9 33
-20 53 -11 20 -20 40 -20 46 0 12 -21 61 -51 122 -10 22 -19 45 -19 52 0 7
-11 36 -25 63 -14 28 -25 54 -25 59 0 5 -9 27 -19 49 -11 22 -23 52 -26 67 -4
15 -11 30 -16 33 -5 3 -9 16 -9 30 0 13 -3 24 -7 24 -9 0 -33 49 -33 67 0 13
-19 61 -51 126 -11 22 -19 46 -19 55 0 10 -7 26 -15 36 -8 11 -15 26 -15 33 0
7 -11 36 -24 65 -13 29 -33 75 -45 103 -25 56 -45 81 -81 100 -37 19 -109 25
-153 13z"/>
<path d="M11406 2000 c-65 -33 -58 -23 -151 -225 -8 -16 -26 -61 -40 -100 -14
-38 -29 -79 -35 -90 -10 -23 -36 -88 -75 -190 -15 -38 -31 -74 -36 -79 -5 -6
-9 -19 -9 -31 0 -11 -6 -29 -14 -40 -7 -11 -19 -38 -26 -60 -7 -22 -16 -44
-19 -50 -9 -12 -47 -111 -57 -145 -3 -14 -10 -27 -14 -30 -4 -3 -19 -41 -34
-85 -15 -44 -32 -86 -38 -92 -7 -9 -7 -17 2 -28 10 -11 35 -15 110 -15 111 0
114 2 150 90 12 30 32 79 44 107 l21 53 173 0 c100 0 181 4 193 10 21 12 25
49 9 78 -5 9 -19 41 -31 70 -27 66 -41 72 -160 72 -50 0 -89 4 -89 10 0 9 20
59 47 116 8 17 16 37 17 45 2 8 10 31 20 51 9 21 16 40 16 44 0 3 6 20 14 37
36 81 54 127 61 156 4 17 15 36 26 41 16 9 21 5 34 -26 8 -20 15 -40 15 -45 0
-9 23 -64 51 -122 11 -22 19 -46 19 -55 0 -10 7 -26 15 -36 8 -11 15 -28 15
-37 0 -9 8 -34 19 -56 10 -21 27 -58 36 -83 9 -25 26 -62 36 -83 11 -22 19
-44 19 -51 0 -7 9 -30 19 -52 11 -22 23 -52 26 -67 4 -15 11 -30 16 -33 5 -3
9 -13 9 -22 0 -9 9 -35 19 -57 11 -22 27 -60 37 -85 10 -25 22 -51 27 -57 10
-14 180 -19 211 -7 17 7 22 39 7 48 -5 3 -12 18 -15 32 -4 14 -15 45 -25 68
-10 22 -28 66 -40 96 -13 30 -29 68 -37 83 -8 16 -14 35 -14 42 0 7 -8 30 -19
52 -35 72 -51 114 -51 133 0 10 -4 21 -9 24 -5 3 -26 50 -47 103 -21 54 -46
113 -56 131 -10 18 -18 40 -18 50 0 9 -7 26 -15 36 -8 11 -15 28 -15 37 0 9
-9 34 -19 56 -11 21 -32 71 -47 110 -46 122 -104 173 -193 173 -25 -1 -63 -9
-85 -20z"/>
<path d="M2901 2001 c-15 -10 -27 -169 -13 -189 7 -10 108 -12 468 -12 252 0
465 0 472 0 9 0 12 27 12 99 0 81 -3 100 -16 105 -25 9 -907 7 -923 -3z"/>
<path d="M12600 2003 c-41 -2 -80 -9 -87 -15 -10 -8 -13 -95 -13 -412 0 -389
10 -580 30 -600 6 -6 10 -18 10 -27 0 -23 44 -100 72 -126 32 -29 92 -62 122
-66 14 -1 28 -6 32 -10 12 -12 542 -8 588 4 64 18 98 36 138 72 45 42 62 74
88 168 19 70 20 101 21 533 0 295 -4 463 -10 469 -12 12 -180 12 -192 0 -4 -4
-9 -213 -12 -463 -4 -513 -4 -513 -71 -551 -39 -23 -49 -24 -251 -24 -220 0
-247 3 -289 30 -54 36 -67 161 -66 638 1 296 -1 372 -12 378 -7 5 -15 8 -18 7
-3 -1 -39 -4 -80 -5z"/>
<path d="M14004 1995 c-16 -12 -22 -181 -8 -195 5 -5 104 -11 219 -12 l210 -3
3 -509 c1 -356 6 -513 13 -523 8 -9 38 -13 100 -13 77 0 90 2 99 19 6 13 10
196 10 525 l0 506 218 2 217 3 3 94 c1 52 -1 98 -6 103 -12 12 -1062 15 -1078
3z"/>
<path d="M15837 2003 c-1 -1 -29 -2 -62 -4 -33 -1 -67 -6 -75 -10 -127 -60
-148 -83 -201 -219 -20 -51 -20 -739 0 -790 46 -119 80 -166 144 -198 67 -34
87 -36 372 -40 357 -4 417 8 499 108 69 82 83 151 93 440 6 187 -10 465 -28
476 -5 3 -9 13 -9 24 0 29 -41 98 -79 133 -76 69 -122 78 -409 80 -134 1 -244
1 -245 0z m499 -256 c20 -24 37 -58 43 -88 15 -66 14 -513 0 -581 -23 -109
-52 -121 -319 -125 -243 -4 -288 4 -333 59 l-29 36 -2 264 c-1 349 1 385 32
426 13 17 38 36 56 41 17 6 141 9 275 8 l243 -2 34 -38z"/>
<path d="M313 1985 c-46 -20 -102 -84 -114 -130 -5 -22 -14 -50 -19 -63 -13
-31 -13 -289 0 -297 6 -3 10 -21 10 -40 0 -19 5 -37 10 -40 6 -3 10 -14 10
-24 0 -27 35 -66 80 -90 38 -20 55 -21 319 -21 l278 0 27 -26 c25 -25 26 -32
26 -130 0 -113 -10 -146 -47 -163 -16 -7 -135 -11 -361 -11 -250 0 -341 -3
-350 -12 -16 -16 -16 -159 1 -181 11 -16 44 -17 407 -15 388 3 396 3 430 25
55 34 73 54 100 107 24 48 25 57 25 241 0 184 -1 193 -25 241 -31 61 -45 76
-94 103 -37 21 -50 22 -308 21 -259 0 -270 0 -299 21 l-30 21 3 125 3 126 40
14 c31 11 110 13 354 13 251 -1 316 1 322 12 13 20 11 162 -3 176 -19 19 -752
16 -795 -3z"/>
<path d="M1553 1993 c-14 -5 -19 -193 -5 -193 409 -3 937 1 941 9 3 5 5 50 3
100 l-3 91 -462 -1 c-254 0 -468 -3 -474 -6z"/>
<path d="M4236 1984 c-10 -27 -7 -172 5 -179 5 -4 158 -6 338 -5 434 1 461 -6
475 -124 11 -84 -8 -152 -48 -177 -29 -18 -55 -19 -397 -19 -325 0 -368 -2
-373 -16 -3 -9 -6 -170 -6 -358 0 -253 3 -345 12 -354 17 -17 184 -16 195 1 4
6 10 125 13 262 l5 250 158 3 c182 3 176 5 232 -104 16 -33 43 -81 60 -109 17
-27 34 -57 38 -65 4 -8 18 -33 31 -55 14 -22 33 -56 42 -75 10 -19 31 -54 46
-77 l29 -43 104 0 c109 0 110 1 105 44 -2 23 -52 119 -103 198 -21 31 -37 61
-37 67 0 5 -3 11 -7 13 -5 2 -21 28 -37 58 -16 30 -31 57 -35 60 -11 9 -41 71
-41 86 0 9 11 14 30 14 45 0 140 66 140 97 0 7 4 13 8 13 5 0 14 19 21 43 7
23 17 56 22 73 21 70 6 298 -22 328 -5 6 -9 17 -9 25 -1 42 -86 121 -131 121
-10 0 -21 5 -24 10 -4 6 -155 10 -420 10 -367 0 -414 -2 -419 -16z"/>
<path d="M1589 1458 c-48 -43 -49 -48 -49 -386 0 -282 2 -321 16 -326 29 -11
160 -6 176 7 13 10 17 51 21 260 3 136 9 252 12 257 4 7 131 10 357 10 193 -1
355 3 360 8 5 5 8 49 6 98 l-3 89 -435 3 -435 2 -26 -22z"/>
<path d="M2930 1444 l-40 -36 0 -166 c0 -157 14 -282 32 -282 4 0 8 -9 8 -20
0 -19 40 -92 64 -116 33 -33 108 -62 186 -73 95 -13 628 -15 648 -3 9 7 12 39
10 128 l-3 119 -310 2 c-290 3 -313 4 -350 23 -23 12 -47 31 -55 43 -19 30
-27 182 -10 202 11 13 63 15 365 15 l353 0 6 23 c8 29 8 141 0 161 -5 14 -53
16 -435 16 l-429 0 -40 -36z"/>
</g>
</svg>
