<?xml version="1.0" standalone="no"?>
<!DOCTYPE svg PUBLIC "-//W3C//DTD SVG 20010904//EN"
 "http://www.w3.org/TR/2001/REC-SVG-20010904/DTD/svg10.dtd">
<svg version="1.0" xmlns="http://www.w3.org/2000/svg"
 width="194.000000pt" height="202.000000pt" viewBox="0 0 194.000000 202.000000"
 preserveAspectRatio="xMidYMid meet">
<g transform="translate(0.000000,202.000000) scale(0.100000,-0.100000)"
fill="#ffffff" stroke="none">
<path d="M628 1809 c-16 -9 -18 -28 -18 -164 0 -126 3 -156 16 -169 18 -19 20
-19 45 -6 18 10 19 23 19 168 0 180 -8 203 -62 171z"/>
<path d="M1298 1809 c-16 -9 -18 -28 -18 -163 0 -135 2 -155 18 -169 24 -22
38 -21 54 2 10 14 13 58 11 165 -2 171 -12 196 -65 165z"/>
<path d="M392 1639 c-49 -24 -75 -57 -91 -114 -7 -27 -11 -195 -11 -501 0
-518 2 -537 65 -593 19 -16 52 -35 72 -41 26 -8 208 -10 584 -8 l545 3 43 28
c82 54 81 43 81 610 0 541 0 536 -56 589 -39 36 -74 48 -145 48 l-59 0 0 -40
0 -40 59 0 c99 0 130 -45 131 -187 l0 -63 -620 0 -620 0 0 79 c0 134 28 171
130 171 l50 0 0 40 0 40 -57 0 c-39 0 -72 -7 -101 -21z m1212 -741 c-3 -194
-7 -363 -10 -376 -2 -12 -19 -31 -37 -42 -31 -19 -53 -20 -572 -20 -484 0
-543 2 -564 16 -48 34 -51 58 -51 429 l0 345 620 0 619 0 -5 -352z"/>
<path d="M1235 1082 c-6 -4 -64 -67 -130 -141 -66 -74 -136 -153 -156 -175
l-36 -40 -73 77 c-40 42 -81 77 -91 77 -25 0 -43 -35 -30 -57 21 -39 190 -196
204 -190 24 9 367 398 367 416 0 31 -32 50 -55 33z"/>
<path d="M750 1620 l0 -40 241 0 c216 0 241 2 235 16 -3 9 -6 27 -6 40 l0 24
-235 0 -235 0 0 -40z"/>
</g>
</svg>
