<?xml version="1.0" encoding="utf-8" ?>
<svg xmlns="http://www.w3.org/2000/svg" xmlns:xlink="http://www.w3.org/1999/xlink" width="161" height="109">
	<path fill="#222222" d="M0 0L160.562 0C161.471 1.39073 161.007 28.1334 161.007 31.4988L161.005 88.0356L161.002 102.217C161.001 104.047 161.298 106.457 160.914 108.209C160.852 108.49 160.719 108.76 160.562 109L0 109L0 0Z"/>
	<path fill="#FEFEFE" d="M34.7536 27.5696C38.0707 29.371 41.3832 31.3171 44.5034 33.4433C47.9446 35.7883 52.5216 39.915 56.42 41.2603C58.187 41.87 60.3869 41.7209 62.2486 41.7506L62.2541 36.704C60.7698 36.7162 59.2756 36.7168 57.7921 36.6604C56.7657 36.6214 55.421 36.3887 54.6972 35.5839C53.9335 34.7348 53.6904 33.1886 53.7582 32.0913C53.803 31.3663 54.033 30.4252 54.6234 29.9414C56.2349 28.6207 73.7211 29.2063 76.4381 29.5514C76.8178 30.6276 77.2702 31.8168 77.3055 32.9644C77.3325 33.8406 77.0896 34.7262 76.4662 35.365C74.8975 36.9724 71.4104 36.6895 69.2972 36.7279C69.4516 38.3605 69.3144 40.1017 69.2955 41.7456C73.0753 41.6783 80.0461 40.9812 83.391 42.0796C86.0671 42.9584 87.6187 45.2352 88.8271 47.6225C96.3742 44.8381 104.168 42.3904 111.491 39.038C115.31 37.2902 118.144 34.0468 122.353 32.9599C124.897 32.3028 127.732 32.2957 130.044 33.6797C130.951 34.2226 132.094 35.1582 132.345 36.2424C132.462 36.745 132.359 37.1718 132.09 37.6036C131.281 38.9023 129.467 39.0629 128.101 39.3746C127.472 39.802 126.553 40.097 125.854 40.4383C123.936 41.3733 122.081 42.4772 120.47 43.8853C116.69 47.1901 114.2 51.7844 111.606 56.0195C108.234 61.5263 100.779 73.8505 96.5932 78.1098C93.374 81.385 89.1299 81.3209 84.8179 81.3603L64.0475 81.3435C59.9667 81.341 55.567 81.7091 51.5384 81.077C50.2336 80.8723 48.8302 80.4624 47.8723 79.5033C47.2382 78.8684 46.8924 78.0305 46.735 77.157C46.1589 73.9593 46.6976 64.217 46.7329 60.3165L46.6746 60.2912C43.3636 58.8277 34.0147 53.6339 31.4103 51.3997C30.515 50.6317 29.7189 49.6776 29.2934 48.5665C27.5129 43.9161 32.7978 32.0272 34.7536 27.5696Z"/>
	<path fill="#222222" d="M107.92 47.766L108.107 47.98C107.728 50.7705 94.2801 71.003 91.7923 73.2203C90.9256 73.9927 90.0048 74.2017 88.8772 74.3391C84.6901 74.8492 80.0807 74.4466 75.8384 74.4413C68.258 74.4319 60.5717 74.672 53.0079 74.2187L52.8146 69.5625C52.7443 62.6615 52.6407 55.718 52.962 48.8234C62.7619 49.2644 72.7529 48.3939 82.5029 49.3808C82.8543 50.4365 83.4034 51.4577 83.9322 52.434C84.3397 53.1862 84.9491 54.2226 85.8235 54.4703C88.8361 55.3238 104.502 49.6672 107.92 47.766Z"/>
	<path fill="#222222" d="M37.9985 37.3078C40.6774 38.2342 44.607 42.0572 47.1654 43.7451C46.6778 46.6455 46.8996 49.5682 46.6388 52.4828L46.3284 52.7014C43.0856 50.7416 39.7852 48.748 36.4269 46.9944C36.5675 43.7516 37.3703 40.4826 37.9985 37.3078Z"/>
	<path fill="#FEFEFE" d="M128.448 51.3699C129.032 51.4084 129.287 51.4497 129.715 51.8819C132.591 54.787 134.407 59.864 134.454 63.9126C134.479 66.0458 133.899 68.3908 132.36 69.9452C131.134 71.183 129.871 71.4927 128.187 71.5122C127.78 71.5135 127.392 71.4094 127.01 71.2751C125.433 70.7205 124.091 68.9265 123.386 67.4584C120.516 61.4735 126.677 56.5473 128.431 51.4199L128.448 51.3699Z"/>
</svg>
