<svg version="1.1" id="Layer_1" xmlns="http://www.w3.org/2000/svg" xmlns:xlink="http://www.w3.org/1999/xlink" x="0px" y="0px"
	 width="100%" viewBox="0 0 210 184" enable-background="new 0 0 210 184" xml:space="preserve">
<path fill="#222222" opacity="1.000000" stroke="none" 
	d="
M146.000000,185.000000 
	C97.333336,185.000000 49.166672,185.000000 1.000006,185.000000 
	C1.000004,123.666672 1.000004,62.333347 1.000002,1.000015 
	C70.999992,1.000010 140.999985,1.000010 210.999969,1.000005 
	C210.999985,62.333317 210.999985,123.666634 211.000000,184.999969 
	C189.500000,185.000000 168.000000,185.000000 146.000000,185.000000 
M150.473862,128.087692 
	C150.639160,128.027603 150.804443,127.967514 151.819931,127.710800 
	C151.819931,124.928413 151.819931,122.146019 151.819931,118.845871 
	C144.405869,118.845871 137.123734,118.885269 129.842728,118.812141 
	C128.412079,118.797783 126.215828,118.844124 125.684517,118.018372 
	C122.617638,113.251984 118.009308,113.934456 113.498978,113.994682 
	C111.392990,114.022812 109.286308,113.999496 107.499641,113.999496 
	C105.921463,108.148491 107.201088,104.597404 113.040565,103.123245 
	C114.659546,102.714539 116.925209,100.199219 116.821754,98.804100 
	C116.689064,97.014664 114.621147,95.216103 113.083565,93.736893 
	C112.050362,92.742897 110.193314,92.567764 109.246490,91.531425 
	C108.181976,90.366264 107.252434,88.669746 107.172348,87.156326 
	C107.118759,86.143631 108.499954,84.863205 109.514877,84.044395 
	C110.379776,83.346634 111.938637,83.420364 112.662231,82.653999 
	C114.332726,80.884789 116.731926,78.865036 116.832382,76.847198 
	C116.913589,75.215828 114.368385,72.892395 112.457199,71.844513 
	C108.901344,69.894867 105.458084,68.354904 107.446144,63.582993 
	C109.330444,62.921917 111.047684,62.319450 112.764931,61.716980 
	C108.331375,60.853333 104.138145,60.482498 100.046097,60.966743 
	C96.562714,61.378952 91.530075,59.443668 90.189812,64.535324 
	C88.724754,70.100990 94.256592,70.718445 97.446465,72.704842 
	C100.743080,74.757698 101.113213,77.708015 98.006828,79.858566 
	C97.215408,80.406464 96.512550,81.083557 95.714851,81.620918 
	C87.718094,87.007927 87.834976,89.192940 96.376747,93.560890 
	C96.672394,93.712067 97.126068,93.747749 97.264862,93.980873 
	C98.199905,95.551399 99.577545,97.107018 99.754524,98.779358 
	C99.848328,99.665771 97.953690,100.998306 96.722664,101.742096 
	C93.798615,103.508804 89.242569,103.631439 90.030685,109.666107 
	C90.022591,110.731026 90.014503,111.795952 89.280685,113.010765 
	C88.542755,113.058807 87.804832,113.106850 86.698044,112.677971 
	C86.125343,113.205528 85.552643,113.733078 84.697464,114.897621 
	C83.637505,118.206505 81.380615,119.075363 77.991554,118.930061 
	C71.465691,118.650261 64.919327,118.848503 58.135426,118.848503 
	C58.135426,121.853577 58.135426,124.437065 58.049576,127.893974 
	C58.644196,128.261353 59.239143,128.948166 59.833382,128.947556 
	C67.210548,128.939896 74.587616,128.832260 82.600075,129.041031 
	C84.077705,130.629120 85.555336,132.217194 87.481026,134.056702 
	C87.651985,134.046616 87.822945,134.036514 88.401817,134.417755 
	C88.941589,134.482315 89.481361,134.546875 90.939812,134.793610 
	C99.952461,134.743301 108.965111,134.693008 118.667366,134.719498 
	C121.064293,132.797943 123.461212,130.876389 126.257553,128.824448 
	C126.522316,128.719009 126.752388,128.562561 127.481415,128.231674 
	C127.657967,128.278198 127.834526,128.324738 128.310303,129.076004 
	C135.287964,129.238831 142.265427,129.414581 149.244019,129.510529 
	C149.487473,129.513870 149.741867,128.721970 150.473862,128.087692 
M118.498260,46.431305 
	C121.869072,46.621349 125.247139,47.021114 128.607376,46.905025 
	C130.088058,46.853874 131.532516,45.754425 133.634964,44.744152 
	C134.028915,41.950962 134.422867,39.157768 134.881058,35.909161 
	C130.775436,35.909161 127.789833,35.908089 124.804222,35.909378 
	C117.722351,35.912434 117.728378,35.911995 116.720055,29.084211 
	C116.680168,28.814110 116.313019,28.592339 115.840553,28.054682 
	C108.618286,28.054682 101.135445,27.913885 93.668266,28.192799 
	C92.418678,28.239471 90.276222,30.036854 90.195282,31.145657 
	C89.892006,35.300159 87.175621,35.844315 84.089394,35.964653 
	C80.515038,36.104027 76.931084,35.997105 73.461121,35.997105 
	C72.391983,45.956715 72.434235,46.004593 81.489754,46.003082 
	C83.322395,46.002777 85.189613,45.787098 86.974831,46.077221 
	C88.063148,46.254097 89.942917,47.273739 89.905060,47.803139 
	C89.406204,54.779881 94.148026,54.023075 98.538544,53.921898 
	C101.036308,53.864338 103.536423,53.909218 106.035484,53.907066 
	C115.511177,53.898899 115.511177,53.898762 118.498260,46.431305 
M25.022547,96.913086 
	C25.014023,114.862747 25.065245,132.812775 24.957363,150.761826 
	C24.928322,155.593658 26.500378,159.047180 31.688675,159.325165 
	C36.183578,159.566010 40.729469,158.868622 45.222847,159.120560 
	C49.330887,159.350876 51.242344,157.077240 53.460827,153.422760 
	C53.262699,147.267319 53.064571,141.111893 52.600433,134.058640 
	C52.692604,128.386047 52.784771,122.713463 53.489712,116.458115 
	C53.279346,109.316711 53.068981,102.175301 52.521534,94.995514 
	C52.521534,94.995514 52.186310,94.943367 52.312988,94.434731 
	C52.218449,94.287804 52.123905,94.140869 52.041138,93.252327 
	C49.946503,91.984718 47.955013,89.901176 45.735600,89.620613 
	C41.218147,89.049538 36.563732,89.245995 31.995098,89.557106 
	C30.260384,89.675240 28.606455,90.979683 26.307407,92.090889 
	C25.930737,93.389015 25.554064,94.687134 25.022547,96.913086 
M185.227386,99.814079 
	C185.122025,99.535995 185.016663,99.257904 184.667389,98.203323 
	C184.375595,90.089874 182.825180,88.736710 174.705780,89.326286 
	C171.395966,89.566628 168.076202,89.685966 164.758972,89.804825 
	C159.354538,89.998444 157.059753,91.972305 157.032776,97.305382 
	C156.940384,115.572502 156.962448,133.840866 157.075760,152.107910 
	C157.106430,157.048828 160.257950,160.035233 165.239319,159.957474 
	C168.986786,159.898987 172.757248,158.889282 176.461746,159.136871 
	C180.767227,159.424652 183.489288,158.051544 185.213196,153.815598 
	C185.282059,153.712692 185.431778,153.552170 185.406342,153.516479 
	C185.267105,153.321152 185.084900,153.156479 184.673096,152.073715 
	C184.752609,134.722672 184.832123,117.371613 185.227386,99.814079 
M113.490974,59.488987 
	C113.490974,59.488987 113.460548,59.529839 113.490974,59.488987 
z"/>
<path fill="#DEDEDF" opacity="1.000000" stroke="none" 
	d="
M90.021133,134.611435 
	C89.481361,134.546875 88.941589,134.482315 88.121658,134.069763 
	C87.571999,133.749603 87.302483,133.777435 87.032974,133.805283 
	C85.555336,132.217194 84.077705,130.629120 82.159958,128.526398 
	C80.178314,127.676094 78.641205,127.076736 77.094521,127.050919 
	C70.776413,126.945473 64.455383,127.015297 58.135426,127.020561 
	C58.135426,124.437065 58.135426,121.853577 58.135426,118.848503 
	C64.919327,118.848503 71.465691,118.650261 77.991554,118.930061 
	C81.380615,119.075363 83.637505,118.206505 85.149757,114.504768 
	C86.090332,113.792908 86.578613,113.473900 87.066902,113.154900 
	C87.804832,113.106850 88.542755,113.058807 90.092865,113.001892 
	C93.894432,112.993019 96.883827,112.993019 99.873215,112.993019 
	C99.822899,112.674820 99.772575,112.356628 99.722260,112.038429 
	C96.496346,110.981415 93.270424,109.924400 90.044510,108.867386 
	C89.242569,103.631439 93.798615,103.508804 96.722664,101.742096 
	C97.953690,100.998306 99.848328,99.665771 99.754524,98.779358 
	C99.577545,97.107018 98.199905,95.551399 97.264862,93.980873 
	C97.126068,93.747749 96.672394,93.712067 96.376747,93.560890 
	C87.834976,89.192940 87.718094,87.007927 95.714851,81.620918 
	C96.512550,81.083557 97.215408,80.406464 98.006828,79.858566 
	C101.113213,77.708015 100.743080,74.757698 97.446465,72.704842 
	C94.256592,70.718445 88.724754,70.100990 90.189812,64.535324 
	C91.530075,59.443668 96.562714,61.378952 100.046097,60.966743 
	C104.138145,60.482498 108.331375,60.853333 112.764931,61.716980 
	C111.047684,62.319450 109.330444,62.921917 107.446144,63.582993 
	C105.458084,68.354904 108.901344,69.894867 112.457199,71.844513 
	C114.368385,72.892395 116.913589,75.215828 116.832382,76.847198 
	C116.731926,78.865036 114.332726,80.884789 112.662231,82.653999 
	C111.938637,83.420364 110.379776,83.346634 109.514877,84.044395 
	C108.499954,84.863205 107.118759,86.143631 107.172348,87.156326 
	C107.252434,88.669746 108.181976,90.366264 109.246490,91.531425 
	C110.193314,92.567764 112.050362,92.742897 113.083565,93.736893 
	C114.621147,95.216103 116.689064,97.014664 116.821754,98.804100 
	C116.925209,100.199219 114.659546,102.714539 113.040565,103.123245 
	C107.201088,104.597404 105.921463,108.148491 107.499641,113.999496 
	C109.286308,113.999496 111.392990,114.022812 113.498978,113.994682 
	C118.009308,113.934456 122.617638,113.251984 125.684517,118.018372 
	C126.215828,118.844124 128.412079,118.797783 129.842728,118.812141 
	C137.123734,118.885269 144.405869,118.845871 151.819931,118.845871 
	C151.819931,122.146019 151.819931,124.928413 151.241425,127.606964 
	C150.112152,127.655014 149.561401,127.806908 148.551208,128.061127 
	C141.398224,128.232727 134.704651,128.301987 128.011078,128.371246 
	C127.834526,128.324738 127.657967,128.278198 126.973099,128.232269 
	C126.098343,128.335526 125.896126,128.576187 125.858139,128.954834 
	C123.461212,130.876389 121.064293,132.797943 118.176376,134.327286 
	C117.129951,133.638489 116.576759,133.088501 116.018723,133.083542 
	C108.255386,133.014526 100.490623,132.967300 92.728554,133.078369 
	C91.818954,133.091370 90.923264,134.076797 90.021133,134.611435 
z"/>
<path fill="#DDDDDD" opacity="1.000000" stroke="none" 
	d="
M184.899750,154.024231 
	C183.489288,158.051544 180.767227,159.424652 176.461746,159.136871 
	C172.757248,158.889282 168.986786,159.898987 165.239319,159.957474 
	C160.257950,160.035233 157.106430,157.048828 157.075760,152.107910 
	C156.962448,133.840866 156.940384,115.572502 157.032776,97.305382 
	C157.059753,91.972305 159.354538,89.998444 164.758972,89.804825 
	C168.076202,89.685966 171.395966,89.566628 174.705780,89.326286 
	C182.825180,88.736710 184.375595,90.089874 184.708679,98.851776 
	C184.803848,99.673676 184.857742,99.847122 184.911621,100.020561 
	C184.832123,117.371613 184.752609,134.722672 184.712738,152.786896 
	C184.801529,153.674805 184.850647,153.849518 184.899750,154.024231 
z"/>
<path fill="#DFDFDF" opacity="1.000000" stroke="none" 
	d="
M26.915707,91.743423 
	C28.606455,90.979683 30.260384,89.675240 31.995098,89.557106 
	C36.563732,89.245995 41.218147,89.049538 45.735600,89.620613 
	C47.955013,89.901176 49.946503,91.984718 51.887924,93.731186 
	C51.885246,94.454483 52.035778,94.698921 52.186310,94.943367 
	C52.186310,94.943367 52.521534,94.995514 52.597733,95.473328 
	C52.741596,102.981049 52.809269,110.010956 52.876938,117.040871 
	C52.784771,122.713463 52.692604,128.386047 52.633797,134.969742 
	C52.716320,141.905563 52.765484,147.930298 52.814644,153.955017 
	C51.242344,157.077240 49.330887,159.350876 45.222847,159.120560 
	C40.729469,158.868622 36.183578,159.566010 31.688675,159.325165 
	C26.500378,159.047180 24.928322,155.593658 24.957363,150.761826 
	C25.065245,132.812775 25.014023,114.862747 25.449894,96.350319 
	C26.223398,94.439507 26.569553,93.091469 26.915707,91.743423 
z"/>
<path fill="#DFDFDF" opacity="1.000000" stroke="none" 
	d="
M117.914902,45.811916 
	C115.511177,53.898762 115.511177,53.898899 106.035484,53.907066 
	C103.536423,53.909218 101.036308,53.864338 98.538544,53.921898 
	C94.148026,54.023075 89.406204,54.779881 89.905060,47.803139 
	C89.942917,47.273739 88.063148,46.254097 86.974831,46.077221 
	C85.189613,45.787098 83.322395,46.002777 81.489754,46.003082 
	C72.434235,46.004593 72.391983,45.956715 73.461121,35.997105 
	C76.931084,35.997105 80.515038,36.104027 84.089394,35.964653 
	C87.175621,35.844315 89.892006,35.300159 90.195282,31.145657 
	C90.276222,30.036854 92.418678,28.239471 93.668266,28.192799 
	C101.135445,27.913885 108.618286,28.054682 115.840553,28.054682 
	C116.313019,28.592339 116.680168,28.814110 116.720055,29.084211 
	C117.728378,35.911995 117.722351,35.912434 124.804222,35.909378 
	C127.789833,35.908089 130.775436,35.909161 134.881058,35.909161 
	C134.422867,39.157768 134.028915,41.950962 132.851715,44.889336 
	C127.350601,45.293652 122.632751,45.552784 117.914902,45.811916 
z"/>
<path fill="#ECECEC" opacity="1.000000" stroke="none" 
	d="
M90.480469,134.702515 
	C90.923264,134.076797 91.818954,133.091370 92.728554,133.078369 
	C100.490623,132.967300 108.255386,133.014526 116.018723,133.083542 
	C116.576759,133.088501 117.129951,133.638489 117.831573,134.288895 
	C108.965111,134.693008 99.952461,134.743301 90.480469,134.702515 
z"/>
<path fill="#F9F9F9" opacity="1.000000" stroke="none" 
	d="
M58.092499,127.457268 
	C64.455383,127.015297 70.776413,126.945473 77.094521,127.050919 
	C78.641205,127.076736 80.178314,127.676094 81.842270,128.381042 
	C74.587616,128.832260 67.210548,128.939896 59.833382,128.947556 
	C59.239143,128.948166 58.644196,128.261353 58.092499,127.457268 
z"/>
<path fill="#101010" opacity="1.000000" stroke="none" 
	d="
M128.160690,128.723633 
	C134.704651,128.301987 141.398224,128.232727 148.798035,128.141754 
	C149.666580,128.180298 149.828873,128.240524 149.991165,128.300735 
	C149.741867,128.721970 149.487473,129.513870 149.244019,129.510529 
	C142.265427,129.414581 135.287964,129.238831 128.160690,128.723633 
z"/>
<path fill="#101010" opacity="1.000000" stroke="none" 
	d="
M118.206581,46.121613 
	C122.632751,45.552784 127.350601,45.293652 132.530945,45.082718 
	C131.532516,45.754425 130.088058,46.853874 128.607376,46.905025 
	C125.247139,47.021114 121.869072,46.621349 118.206581,46.121613 
z"/>
<path fill="#101010" opacity="1.000000" stroke="none" 
	d="
M90.037598,109.266747 
	C93.270424,109.924400 96.496346,110.981415 99.722260,112.038429 
	C99.772575,112.356628 99.822899,112.674820 99.873215,112.993019 
	C96.883827,112.993019 93.894432,112.993019 90.455734,112.926941 
	C90.014503,111.795952 90.022591,110.731026 90.037598,109.266747 
z"/>
<path fill="#040404" opacity="1.000000" stroke="none" 
	d="
M53.183327,116.749496 
	C52.809269,110.010956 52.741596,102.981049 52.766273,95.492516 
	C53.068981,102.175301 53.279346,109.316711 53.183327,116.749496 
z"/>
<path fill="#040404" opacity="1.000000" stroke="none" 
	d="
M53.137737,153.688889 
	C52.765484,147.930298 52.716320,141.905563 52.766800,135.418640 
	C53.064571,141.111893 53.262699,147.267319 53.137737,153.688889 
z"/>
<path fill="#EDEEEE" opacity="1.000000" stroke="none" 
	d="
M26.611557,91.917160 
	C26.569553,93.091469 26.223398,94.439507 25.527317,95.886406 
	C25.554064,94.687134 25.930737,93.389015 26.611557,91.917160 
z"/>
<path fill="#101010" opacity="1.000000" stroke="none" 
	d="
M86.882477,112.916435 
	C86.578613,113.473900 86.090332,113.792908 85.290993,114.186272 
	C85.552643,113.733078 86.125343,113.205528 86.882477,112.916435 
z"/>
<path fill="#F9F9F9" opacity="1.000000" stroke="none" 
	d="
M150.232513,128.194214 
	C149.828873,128.240524 149.666580,128.180298 149.257462,128.039429 
	C149.561401,127.806908 150.112152,127.655014 150.816330,127.705276 
	C150.804443,127.967514 150.639160,128.027603 150.232513,128.194214 
z"/>
<path fill="#ECECEC" opacity="1.000000" stroke="none" 
	d="
M87.257004,133.931000 
	C87.302483,133.777435 87.571999,133.749603 87.917709,133.874084 
	C87.822945,134.036514 87.651985,134.046616 87.257004,133.931000 
z"/>
<path fill="#060707" opacity="1.000000" stroke="none" 
	d="
M185.056473,153.919922 
	C184.850647,153.849518 184.801529,153.674805 184.834930,153.240677 
	C185.084900,153.156479 185.267105,153.321152 185.406342,153.516479 
	C185.431778,153.552170 185.282059,153.712692 185.056473,153.919922 
z"/>
<path fill="#101010" opacity="1.000000" stroke="none" 
	d="
M126.057846,128.889648 
	C125.896126,128.576187 126.098343,128.335526 126.706276,128.293991 
	C126.752388,128.562561 126.522316,128.719009 126.057846,128.889648 
z"/>
<path fill="#060707" opacity="1.000000" stroke="none" 
	d="
M185.069504,99.917320 
	C184.857742,99.847122 184.803848,99.673676 184.830627,99.240021 
	C185.016663,99.257904 185.122025,99.535995 185.069504,99.917320 
z"/>
<path fill="#E9E9E8" opacity="1.000000" stroke="none" 
	d="
M52.249649,94.689049 
	C52.035778,94.698921 51.885246,94.454483 51.882038,94.101982 
	C52.123905,94.140869 52.218449,94.287804 52.249649,94.689049 
z"/>
<path fill="#DEDEDF" opacity="1.000000" stroke="none" 
	d="
M113.475761,59.509415 
	C113.460548,59.529839 113.490974,59.488987 113.475761,59.509415 
z"/>
</svg>