<svg version="1.1" id="Layer_1" xmlns="http://www.w3.org/2000/svg" xmlns:xlink="http://www.w3.org/1999/xlink" x="0px" y="0px"
	 width="100%" viewBox="0 0 137 148" enable-background="new 0 0 137 148" xml:space="preserve">
<path fill="#222222" opacity="1.000000" stroke="none" 
	d="
M84.000000,149.000000 
	C56.024132,149.000000 28.548265,149.000000 1.036199,149.000000 
	C1.036199,99.734116 1.036199,50.468197 1.036199,1.101139 
	C46.558964,1.101139 92.118225,1.101139 137.838745,1.101139 
	C137.838745,50.332905 137.838745,99.666405 137.838745,149.000000 
	C120.135216,149.000000 102.317604,149.000000 84.000000,149.000000 
M108.936142,51.307568 
	C107.290947,49.206619 105.645744,47.105671 103.699181,44.401764 
	C93.243172,33.296509 79.885590,30.466768 65.374924,31.101398 
	C64.556580,31.137190 63.789936,32.355080 62.219460,33.191044 
	C59.269306,34.445854 56.295872,35.648933 53.372864,36.964077 
	C37.315220,44.188858 27.991802,56.847969 26.759241,74.102898 
	C25.527639,91.344391 32.792458,105.191444 47.861012,114.542381 
	C57.412453,120.469620 67.854088,122.761360 78.598282,120.376328 
	C94.152939,116.923454 106.088150,108.165382 113.361351,92.931580 
	C114.574188,89.398239 116.362350,85.948181 116.888222,82.315407 
	C118.272034,72.755867 115.506271,63.776543 112.386505,54.468975 
	C112.907288,53.605453 113.428070,52.741932 114.302933,51.291294 
	C111.820358,51.620228 110.421745,51.805538 108.936142,51.307568 
z"/>
<path fill="#F5F5F5" opacity="1.000000" stroke="none" 
	d="
M112.564041,93.034035 
	C106.088150,108.165382 94.152939,116.923454 78.598282,120.376328 
	C67.854088,122.761360 57.412453,120.469620 47.861012,114.542381 
	C32.792458,105.191444 25.527639,91.344391 26.759241,74.102898 
	C27.991802,56.847969 37.315220,44.188858 53.372864,36.964077 
	C56.295872,35.648933 59.269306,34.445854 63.051338,33.267586 
	C72.171028,32.450066 80.373482,33.001091 87.799995,36.920132 
	C93.182579,39.760571 98.037994,43.599976 103.117218,47.336319 
	C104.971298,49.704525 106.836632,51.730328 108.654053,53.978271 
	C108.641983,54.515728 108.775253,54.782352 109.006599,55.364075 
	C116.379173,67.573448 115.966171,80.161247 112.564041,93.034035 
M43.234219,80.161789 
	C44.526070,97.664055 60.957123,107.257889 75.073898,104.991997 
	C90.278450,102.551491 102.354416,88.534866 98.562057,71.764534 
	C94.928970,55.698490 81.254280,47.929455 68.897514,49.156483 
	C52.068058,50.827644 42.120457,63.047943 43.234219,80.161789 
z"/>
<path fill="#090A0B" opacity="1.000000" stroke="none" 
	d="
M103.128487,46.993919 
	C98.037994,43.599976 93.182579,39.760571 87.799995,36.920132 
	C80.373482,33.001091 72.171028,32.450066 63.441223,33.183456 
	C63.789936,32.355080 64.556580,31.137190 65.374924,31.101398 
	C79.885590,30.466768 93.243172,33.296509 103.831741,44.988449 
	C103.685692,46.048065 103.407089,46.520992 103.128487,46.993919 
z"/>
<path fill="#010101" opacity="1.000000" stroke="none" 
	d="
M112.962692,92.982803 
	C115.966171,80.161247 116.379173,67.573448 109.380150,55.362572 
	C110.499901,55.000103 111.246765,55.002926 111.993629,55.005749 
	C115.506271,63.776543 118.272034,72.755867 116.888222,82.315407 
	C116.362350,85.948181 114.574188,89.398239 112.962692,92.982803 
z"/>
<path fill="#010101" opacity="1.000000" stroke="none" 
	d="
M103.117218,47.336319 
	C103.407089,46.520992 103.685692,46.048065 103.982422,45.289928 
	C105.645744,47.105671 107.290947,49.206619 108.901062,52.090919 
	C108.811310,53.168221 108.756638,53.462173 108.701973,53.756126 
	C106.836632,51.730328 104.971298,49.704525 103.117218,47.336319 
z"/>
<path fill="#090A0B" opacity="1.000000" stroke="none" 
	d="
M108.654053,53.978271 
	C108.756638,53.462173 108.811310,53.168221 108.944550,52.432560 
	C110.421745,51.805538 111.820358,51.620228 114.302933,51.291294 
	C113.428070,52.741932 112.907288,53.605453 112.190063,54.737362 
	C111.246765,55.002926 110.499901,55.000103 109.379486,54.998783 
	C108.775253,54.782352 108.641983,54.515728 108.654053,53.978271 
z"/>
<path fill="#1C1C1C" opacity="1.000000" stroke="none" 
	d="
M43.163742,79.713585 
	C42.120457,63.047943 52.068058,50.827644 68.897514,49.156483 
	C81.254280,47.929455 94.928970,55.698490 98.562057,71.764534 
	C102.354416,88.534866 90.278450,102.551491 75.073898,104.991997 
	C60.957123,107.257889 44.526070,97.664055 43.163742,79.713585 
M78.459343,99.079468 
	C84.585518,97.994293 88.452591,93.438461 91.628250,88.974365 
	C97.640137,80.523293 96.570992,67.693031 85.213280,58.939095 
	C76.979126,52.592625 66.502754,52.812531 58.861954,56.730896 
	C45.964920,63.344788 42.151749,83.819008 55.197788,95.079826 
	C61.802010,100.780319 71.208191,102.810532 78.459343,99.079468 
z"/>
<path fill="#E4E4E5" opacity="1.000000" stroke="none" 
	d="
M78.057144,99.155136 
	C71.208191,102.810532 61.802010,100.780319 55.197788,95.079826 
	C42.151749,83.819008 45.964920,63.344788 58.861954,56.730896 
	C66.502754,52.812531 76.979126,52.592625 85.213280,58.939095 
	C96.570992,67.693031 97.640137,80.523293 91.628250,88.974365 
	C88.452591,93.438461 84.585518,97.994293 78.057144,99.155136 
M50.020981,76.601501 
	C50.516621,79.780693 51.012260,82.959892 51.612850,86.812271 
	C54.859352,84.751846 56.839436,83.349503 58.951630,82.187256 
	C62.514820,80.226601 62.161175,76.535843 60.547661,74.602371 
	C58.570507,72.233162 54.943871,71.240471 51.563988,69.398460 
	C50.983643,71.784538 50.504818,73.753235 50.020981,76.601501 
M59.954964,68.735100 
	C63.195148,72.003372 66.360352,68.819138 67.397926,67.179413 
	C69.111000,64.472145 69.073479,60.657146 69.773735,57.308990 
	C69.247322,56.911201 68.720917,56.513409 68.194511,56.115620 
	C63.565678,58.611927 58.936840,61.108231 53.234772,64.183327 
	C56.195805,66.075645 57.827477,67.118408 59.954964,68.735100 
M91.372833,79.297508 
	C91.375122,78.638725 91.385414,77.979866 91.378471,77.321182 
	C91.298325,69.715446 90.681740,69.554848 84.040939,72.615273 
	C80.339378,74.321152 80.236008,77.426582 81.212990,79.646179 
	C82.217323,81.927925 84.968788,84.132828 87.421997,84.922188 
	C91.087013,86.101448 90.370300,82.116776 91.372833,79.297508 
M70.523277,83.377632 
	C72.002480,82.777100 74.233528,82.569679 74.797676,81.490707 
	C75.835609,79.505608 76.629196,76.824715 76.121284,74.782913 
	C75.729843,73.209343 73.258698,71.269173 71.586723,71.141953 
	C69.848450,71.009666 67.476768,72.455894 66.243469,73.931709 
	C64.117180,76.476128 65.901756,80.646133 70.523277,83.377632 
M67.779198,96.946938 
	C69.531990,93.398140 70.424271,89.619270 67.158539,86.690170 
	C64.017914,83.873260 60.266186,85.283760 55.081394,91.077866 
	C59.208324,93.124451 63.072495,95.040733 67.779198,96.946938 
M73.622017,91.653168 
	C73.622017,93.423286 73.622017,95.193405 73.622017,98.110458 
	C78.561287,95.662659 82.563568,93.679207 87.544090,91.210960 
	C84.970970,89.293640 83.285576,87.904045 81.470367,86.712120 
	C77.239571,83.934052 74.242874,85.507019 73.622017,91.653168 
M84.798706,66.532722 
	C85.157967,65.478325 86.050674,63.662468 85.796181,63.484188 
	C82.198898,60.964111 78.445801,58.666428 74.730453,56.314877 
	C74.380295,56.721699 74.030136,57.128521 73.679977,57.535343 
	C74.577499,61.023731 71.424965,65.096909 76.245087,68.126152 
	C79.644547,70.262566 81.756065,68.808754 84.798706,66.532722 
z"/>
<path fill="#070808" opacity="1.000000" stroke="none" 
	d="
M50.023483,76.161713 
	C50.504818,73.753235 50.983643,71.784538 51.563988,69.398460 
	C54.943871,71.240471 58.570507,72.233162 60.547661,74.602371 
	C62.161175,76.535843 62.514820,80.226601 58.951630,82.187256 
	C56.839436,83.349503 54.859352,84.751846 51.612850,86.812271 
	C51.012260,82.959892 50.516621,79.780693 50.023483,76.161713 
z"/>
<path fill="#111212" opacity="1.000000" stroke="none" 
	d="
M59.707054,68.448135 
	C57.827477,67.118408 56.195805,66.075645 53.234772,64.183327 
	C58.936840,61.108231 63.565678,58.611927 68.194511,56.115620 
	C68.720917,56.513409 69.247322,56.911201 69.773735,57.308990 
	C69.073479,60.657146 69.111000,64.472145 67.397926,67.179413 
	C66.360352,68.819138 63.195148,72.003372 59.707054,68.448135 
z"/>
<path fill="#060606" opacity="1.000000" stroke="none" 
	d="
M91.364731,79.747742 
	C90.370300,82.116776 91.087013,86.101448 87.421997,84.922188 
	C84.968788,84.132828 82.217323,81.927925 81.212990,79.646179 
	C80.236008,77.426582 80.339378,74.321152 84.040939,72.615273 
	C90.681740,69.554848 91.298325,69.715446 91.378471,77.321182 
	C91.385414,77.979866 91.375122,78.638725 91.364731,79.747742 
z"/>
<path fill="#161616" opacity="1.000000" stroke="none" 
	d="
M70.118546,83.289207 
	C65.901756,80.646133 64.117180,76.476128 66.243469,73.931709 
	C67.476768,72.455894 69.848450,71.009666 71.586723,71.141953 
	C73.258698,71.269173 75.729843,73.209343 76.121284,74.782913 
	C76.629196,76.824715 75.835609,79.505608 74.797676,81.490707 
	C74.233528,82.569679 72.002480,82.777100 70.118546,83.289207 
z"/>
<path fill="#111112" opacity="1.000000" stroke="none" 
	d="
M67.357933,96.951981 
	C63.072495,95.040733 59.208324,93.124451 55.081394,91.077866 
	C60.266186,85.283760 64.017914,83.873260 67.158539,86.690170 
	C70.424271,89.619270 69.531990,93.398140 67.357933,96.951981 
z"/>
<path fill="#0E0E0E" opacity="1.000000" stroke="none" 
	d="
M73.620911,91.203697 
	C74.242874,85.507019 77.239571,83.934052 81.470367,86.712120 
	C83.285576,87.904045 84.970970,89.293640 87.544090,91.210960 
	C82.563568,93.679207 78.561287,95.662659 73.622017,98.110458 
	C73.622017,95.193405 73.622017,93.423286 73.620911,91.203697 
z"/>
<path fill="#131313" opacity="1.000000" stroke="none" 
	d="
M84.487320,66.747536 
	C81.756065,68.808754 79.644547,70.262566 76.245087,68.126152 
	C71.424965,65.096909 74.577499,61.023731 73.679977,57.535343 
	C74.030136,57.128521 74.380295,56.721699 74.730453,56.314877 
	C78.445801,58.666428 82.198898,60.964111 85.796181,63.484188 
	C86.050674,63.662468 85.157967,65.478325 84.487320,66.747536 
M77.880806,63.111023 
	C78.248215,64.294922 78.615623,65.478821 78.983032,66.662720 
	C80.524109,66.150703 82.065178,65.638680 84.265358,64.907677 
	C82.007133,63.082230 80.506828,61.869453 79.006531,60.656681 
	C78.560730,61.246990 78.114922,61.837296 77.880806,63.111023 
z"/>
<path fill="#0D0D0E" opacity="1.000000" stroke="none" 
	d="
M77.774963,62.769314 
	C78.114922,61.837296 78.560730,61.246990 79.006531,60.656681 
	C80.506828,61.869453 82.007133,63.082230 84.265358,64.907677 
	C82.065178,65.638680 80.524109,66.150703 78.983032,66.662720 
	C78.615623,65.478821 78.248215,64.294922 77.774963,62.769314 
z"/>
</svg>