<?xml version="1.0" standalone="no"?>
<!DOCTYPE svg PUBLIC "-//W3C//DTD SVG 20010904//EN"
 "http://www.w3.org/TR/2001/REC-SVG-20010904/DTD/svg10.dtd">
<svg version="1.0" xmlns="http://www.w3.org/2000/svg"
 width="258.000000pt" height="256.000000pt" viewBox="0 0 258.000000 256.000000"
 preserveAspectRatio="xMidYMid meet">
<g transform="translate(0.000000,256.000000) scale(0.100000,-0.100000)"
fill="#ff4500" stroke="none">
<path d="M1165 2226 c-44 -19 -55 -53 -55 -167 0 -99 0 -99 -27 -111 -16 -6
-52 -22 -82 -35 l-55 -24 -70 70 c-124 121 -134 120 -276 -24 -97 -99 -102
-106 -96 -137 4 -23 30 -57 83 -110 l76 -77 -30 -68 c-17 -37 -33 -76 -36 -85
-6 -16 -20 -18 -102 -18 -167 0 -185 -19 -185 -200 0 -182 17 -200 180 -200
87 0 101 -2 107 -17 3 -10 14 -38 25 -63 l19 -44 80 80 81 81 -12 44 c-18 65
-14 196 9 267 73 236 267 383 506 383 302 1 536 -229 536 -526 1 -249 -158
-457 -396 -522 -63 -16 -198 -18 -255 -3 l-43 12 -81 -81 -80 -80 44 -19 c25
-11 53 -22 63 -25 14 -6 17 -20 17 -100 0 -169 19 -187 198 -187 184 0 202 16
202 180 l0 101 38 15 c20 8 58 24 85 36 l47 21 85 -83 c110 -107 113 -106 248
28 54 53 100 107 103 119 10 37 -5 62 -82 143 l-74 77 29 64 c16 35 31 72 35
82 5 15 19 17 101 17 167 0 185 19 185 200 0 182 -17 200 -180 200 l-101 0
-15 38 c-8 20 -24 58 -36 85 l-21 47 83 85 c107 110 106 113 -28 248 -53 54
-106 100 -117 103 -35 9 -75 -14 -150 -86 l-72 -70 -64 29 c-35 16 -72 31 -81
35 -16 5 -18 19 -18 99 0 118 -12 155 -56 173 -44 18 -247 18 -289 0z"/>
<path d="M1263 1659 c-129 -16 -259 -111 -319 -234 -27 -55 -29 -70 -30 -173
l-1 -113 -230 -232 c-127 -128 -238 -246 -246 -263 -43 -84 -29 -175 37 -240
65 -66 156 -80 240 -37 17 8 136 120 264 247 l233 231 87 -3 c69 -3 100 1 151
18 198 66 309 250 278 460 -14 97 -23 96 -132 -10 l-95 -94 -87 17 c-48 9 -89
21 -93 27 -4 6 -12 47 -20 91 l-13 80 93 95 c104 105 106 118 22 129 -26 4
-54 8 -62 9 -8 2 -43 0 -77 -5z m-99 -393 c14 -76 27 -141 29 -143 3 -2 70
-16 151 -32 80 -15 149 -31 153 -35 4 -3 2 -11 -5 -18 -13 -13 -310 37 -328
56 -15 15 -68 301 -60 323 14 36 34 -14 60 -151z m-589 -648 c-17 -54 -17 -79
0 -104 14 -22 22 -25 53 -21 21 3 47 8 60 12 16 5 22 3 22 -8 0 -24 -40 -47
-83 -47 -55 0 -107 52 -107 107 0 43 23 83 47 83 11 0 14 -6 8 -22z"/>
</g>
</svg>
